<?xml version="1.0" encoding="UTF-8" standalone="no"?>
<!-- Created with Inkscape (http://www.inkscape.org/) -->

<svg
   width="512"
   height="512"
   viewBox="0 0 512 512"
   version="1.1"
   id="svg1"
   sodipodi:docname="icon.svg"
   inkscape:version="1.3 (0e150ed6c4, 2023-07-21)"
   xmlns:inkscape="http://www.inkscape.org/namespaces/inkscape"
   xmlns:sodipodi="http://sodipodi.sourceforge.net/DTD/sodipodi-0.dtd"
   xmlns:xlink="http://www.w3.org/1999/xlink"
   xmlns="http://www.w3.org/2000/svg"
   xmlns:svg="http://www.w3.org/2000/svg">
  <sodipodi:namedview
     id="namedview1"
     pagecolor="#505050"
     bordercolor="#ffffff"
     borderopacity="1"
     inkscape:showpageshadow="0"
     inkscape:pageopacity="0"
     inkscape:pagecheckerboard="1"
     inkscape:deskcolor="#505050"
     inkscape:document-units="px"
     inkscape:zoom="2.2910156"
     inkscape:cx="256"
     inkscape:cy="256"
     inkscape:window-width="2560"
     inkscape:window-height="1369"
     inkscape:window-x="-8"
     inkscape:window-y="-1"
     inkscape:window-maximized="1"
     inkscape:current-layer="layer2"
     inkscape:export-bgcolor="#ffffff00" />
  <defs
     id="defs1">
    <linearGradient
       id="linearGradient25"
       inkscape:collect="always">
      <stop
         style="stop-color:#ffffff;stop-opacity:1;"
         offset="0"
         id="stop25" />
      <stop
         style="stop-color:#ff2a2a;stop-opacity:1;"
         offset="1"
         id="stop26" />
    </linearGradient>
    <inkscape:path-effect
       effect="fillet_chamfer"
       id="path-effect1"
       is_visible="true"
       lpeversion="1"
       nodesatellites_param="F,0,0,1,0,80,0,1 @ F,0,0,1,0,80,0,1 @ F,0,0,1,0,80,0,1 @ F,0,0,1,0,80,0,1"
       radius="80"
       unit="px"
       method="auto"
       mode="F"
       chamfer_steps="1"
       flexible="false"
       use_knot_distance="true"
       apply_no_radius="true"
       apply_with_radius="true"
       only_selected="false"
       hide_knots="false" />
    <linearGradient
       inkscape:collect="always"
       xlink:href="#linearGradient25"
       id="linearGradient26"
       x1="179.87009"
       y1="84.473297"
       x2="270.98557"
       y2="84.473297"
       gradientUnits="userSpaceOnUse"
       gradientTransform="matrix(1.3710562,0,0,1.3713557,-70.52149,-13.712613)" />
    <linearGradient
       inkscape:collect="always"
       xlink:href="#linearGradient25"
       id="linearGradient27"
       gradientUnits="userSpaceOnUse"
       gradientTransform="matrix(-1.2558901,0,0,1.2087005,391.48674,6.8860678)"
       x1="179.87009"
       y1="84.473297"
       x2="270.98557"
       y2="84.473297" />
    <linearGradient
       inkscape:collect="always"
       xlink:href="#linearGradient25"
       id="linearGradient31"
       gradientUnits="userSpaceOnUse"
       gradientTransform="matrix(-0.9050739,0.96948314,0.9052716,0.96969491,224.73609,-137.35074)"
       x1="179.87009"
       y1="84.473297"
       x2="270.98557"
       y2="84.473297" />
    <linearGradient
       inkscape:collect="always"
       xlink:href="#linearGradient25"
       id="linearGradient32"
       gradientUnits="userSpaceOnUse"
       gradientTransform="matrix(0.1608969,1.3164986,1.3247268,-0.07017041,-15.988862,-78.540411)"
       x1="179.87009"
       y1="84.473297"
       x2="270.98557"
       y2="84.473297" />
    <linearGradient
       inkscape:collect="always"
       xlink:href="#linearGradient25"
       id="linearGradient33"
       gradientUnits="userSpaceOnUse"
       gradientTransform="matrix(0.88129795,1.05029,-1.0505194,0.88149044,148.66265,-144.73479)"
       x1="179.87009"
       y1="84.473297"
       x2="270.98557"
       y2="84.473297" />
    <linearGradient
       inkscape:collect="always"
       xlink:href="#linearGradient25"
       id="linearGradient34"
       gradientUnits="userSpaceOnUse"
       gradientTransform="matrix(-1.2957629,-0.68847475,-0.71999914,1.1476665,507.12226,145.92211)"
       x1="179.87009"
       y1="84.473297"
       x2="270.98557"
       y2="84.473297" />
    <linearGradient
       inkscape:collect="always"
       xlink:href="#linearGradient25"
       id="linearGradient35"
       gradientUnits="userSpaceOnUse"
       gradientTransform="matrix(0.92887322,-0.49645579,0.49402545,0.79336755,-49.855764,152.52903)"
       x1="179.87009"
       y1="84.473297"
       x2="270.98557"
       y2="84.473297" />
    <linearGradient
       inkscape:collect="always"
       xlink:href="#linearGradient25"
       id="linearGradient36"
       gradientUnits="userSpaceOnUse"
       gradientTransform="matrix(1.3148009,0.15348472,-0.05140304,1.0368639,-67.023431,17.857054)"
       x1="179.87009"
       y1="84.473297"
       x2="270.98557"
       y2="84.473297" />
    <linearGradient
       inkscape:collect="always"
       xlink:href="#linearGradient25"
       id="linearGradient37"
       gradientUnits="userSpaceOnUse"
       gradientTransform="matrix(-1.3148009,0.15348472,0.05140304,1.0368639,420.99885,24.404369)"
       x1="179.87009"
       y1="84.473297"
       x2="270.98557"
       y2="84.473297" />
    <linearGradient
       inkscape:collect="always"
       xlink:href="#linearGradient25"
       id="linearGradient38"
       gradientUnits="userSpaceOnUse"
       gradientTransform="matrix(-0.62971462,0.82669861,0.71606128,0.46880317,210.42295,-49.136719)"
       x1="179.87009"
       y1="84.473297"
       x2="270.98557"
       y2="84.473297" />
    <linearGradient
       inkscape:collect="always"
       xlink:href="#linearGradient25"
       id="linearGradient39"
       gradientUnits="userSpaceOnUse"
       gradientTransform="matrix(-1.0578219,-0.42346309,-0.4124741,0.74575471,422.05664,145.26946)"
       x1="179.87009"
       y1="84.473297"
       x2="270.98557"
       y2="84.473297" />
  </defs>
  <g
     inkscape:groupmode="layer"
     id="layer2"
     inkscape:label="firework">
    <g
       inkscape:groupmode="layer"
       id="layer3"
       inkscape:label="bg">
      <path
         style="fill:#000000;stroke-width:1.00947"
         id="rect1"
         width="512"
         height="512"
         x="0"
         y="0"
         sodipodi:type="rect"
         d="m 80,0 h 352 a 80,80 45 0 1 80,80 v 352 a 80,80 135 0 1 -80,80 H 80 A 80,80 45 0 1 0,432 V 80 A 80,80 135 0 1 80,0 Z"
         inkscape:path-effect="#path-effect1"
         inkscape:label="app-icon-black" />
    </g>
    <path
       style="fill:url(#linearGradient26);fill-opacity:1;stroke:none;stroke-width:6.85603;stroke-linecap:round;stroke-dasharray:none;stroke-opacity:1"
       d="m 179.33103,167.35779 c 9.10026,-24.83619 19.27484,-49.58894 33.9699,-71.703506 8.11873,-12.114602 19.71973,-21.23636 30.4256,-30.929786 11.65814,-9.626009 23.53174,-19.797952 37.92304,-25.042331 5.78682,-2.580846 14.26142,-1.013647 15.56704,6.148823 0.73486,6.717755 -8.0016,9.490555 -12.33484,13.124988 -17.72781,11.242176 -37.13469,20.311946 -52.58801,34.776502 -16.66159,17.43322 -29.8674,37.7795 -43.0731,57.85772 -3.35444,5.21917 -6.66513,10.46701 -9.88963,15.76759 z"
       id="path25" />
    <path
       style="fill:url(#linearGradient27);fill-opacity:1;stroke:none;stroke-width:6.16035;stroke-linecap:round;stroke-dasharray:none;stroke-opacity:1"
       d="M 171.7876,161.24204 C 158.0344,139.8543 144.35745,118.29153 128.17992,98.625645 120.76488,90.30903 111.82607,83.525774 103.40053,76.278126 92.664358,67.796134 81.813061,58.774332 68.787515,54.068801 63.619009,51.80777 55.926567,52.925991 54.637559,59.367696 c -0.605512,6.024807 7.391657,8.352998 11.312494,11.553942 16.23503,9.889789 33.939025,17.810906 48.157347,30.665562 19.55411,19.5636 38.53483,39.6931 57.6802,59.65484 z"
       id="path26" />
    <path
       style="fill:url(#linearGradient31);fill-opacity:1;stroke:none;stroke-width:6.62437;stroke-linecap:round;stroke-dasharray:none;stroke-opacity:1"
       d="M 179.33103,167.35779 C 157.2831,156.39828 119.68875,141.8535 110.4006,140.84264 99.717242,139.58262 83.38697,139.5481 69.932505,140.24937 c -13.991536,1.34797 -28.4421,2.62919 -41.353371,8.60917 -5.649193,2.28264 -11.019667,8.61613 -7.780406,14.87852 2.598335,6.53029 11.090212,2.43293 16.14195,1.88005 19.141945,-4.50869 37.843296,-11.78578 57.641449,-12.85406 20.756003,0.18201 41.170183,4.7063 61.391443,8.97662 7.81507,1.74764 15.60718,3.60173 23.35746,5.61812 z"
       id="path30"
       sodipodi:nodetypes="ccccccccc" />
    <path
       style="fill:url(#linearGradient32);fill-opacity:1;stroke:none;stroke-width:6.62437;stroke-linecap:round;stroke-dasharray:none;stroke-opacity:1"
       d="m 188.24561,152.10476 c -22.56761,9.84506 -44.99171,20.73194 -64.61941,35.76016 -10.85326,8.25794 -18.3557,19.86153 -26.46686,30.61902 -8.146358,11.92032 -16.823669,24.15151 -20.240788,38.40084 -1.832614,5.99128 0.84851,13.7708 7.766581,14.63296 6.427302,0.46086 8.283428,-8.16195 11.231187,-12.51559 8.77699,-17.58275 15.22519,-36.63083 27.4227,-52.27487 14.59395,-16.5812 32.29026,-30.04326 49.71615,-43.47681 5.01614,-3.77906 10.07031,-7.50854 15.19044,-11.14571 z"
       id="path31" />
    <path
       style="fill:url(#linearGradient33);fill-opacity:1;stroke:none;stroke-width:6.85603;stroke-linecap:round;stroke-dasharray:none;stroke-opacity:1"
       d="m 170.55677,163.05316 c 24.87516,-8.99319 50.37696,-17.10977 76.7635,-20.06767 14.49894,-1.56781 28.94359,1.45572 43.25079,3.42608 14.86766,2.74317 30.29203,5.30048 43.56,12.95384 5.69674,2.77402 9.94356,10.27332 5.29603,15.87743 -4.67374,4.88102 -12.41351,-0.0292 -17.98301,-1.01247 -20.00722,-6.35396 -39.42957,-15.39055 -60.44326,-17.93084 -24.06449,-1.55766 -48.13918,1.40444 -72.00844,4.19432 -6.15431,0.78516 -12.30246,1.62227 -18.43561,2.55931 z"
       id="path32" />
    <path
       style="fill:url(#linearGradient34);fill-opacity:1;stroke:none;stroke-width:7.04061;stroke-linecap:round;stroke-dasharray:none;stroke-opacity:1"
       d="m 175.92381,171.99391 c 4.40822,-25.0855 7.7179,-50.69066 5.6321,-76.186675 C 180.44925,81.676861 174.48012,68.6143 169.64087,55.478909 163.47036,40.815966 157.27824,25.540737 146.25742,13.764984 141.95767,8.7059906 133.60965,5.7123653 128.31696,11.093863 c -4.21507,5.347065 2.65522,12.064262 4.76648,17.178032 10.62976,17.915773 23.67882,34.659347 31.04807,54.313384 6.43013,21.123271 8.26926,43.295151 10.26509,65.185971 0.63899,8.06519 1.16927,16.13991 1.52721,24.22266 z"
       id="path33" />
    <path
       style="fill:url(#linearGradient35);fill-opacity:1;stroke:none;stroke-width:4.9553;stroke-linecap:round;stroke-dasharray:none;stroke-opacity:1"
       d="m 184.64605,166.8124 c 0,0 -3.04225,-33.64859 4.3259,-54.5554 6.45085,-18.304077 28.47612,-79.612886 36.44457,-71.783683 4.06175,3.990766 -24.74369,54.178424 -30.76541,71.959173 -6.80773,20.10175 -10.00506,54.37991 -10.00506,54.37991 z"
       id="path34"
       sodipodi:nodetypes="csssc" />
    <path
       style="fill:url(#linearGradient36);fill-opacity:1;stroke:none;stroke-width:5.85483;stroke-linecap:round;stroke-dasharray:none;stroke-opacity:1"
       d="m 165.79036,182.73207 c 0,0 20.73622,-32.36869 43.2123,-46.48025 19.67795,-12.3548 86.02197,-53.465588 88.71946,-41.228859 1.37498,6.237389 -64.09838,32.907699 -82.9602,45.067839 -21.32392,13.74748 -48.97156,42.64127 -48.97156,42.64127 z"
       id="path35"
       sodipodi:nodetypes="csssc" />
    <path
       style="fill:url(#linearGradient37);fill-opacity:1;stroke:none;stroke-width:5.85483;stroke-linecap:round;stroke-dasharray:none;stroke-opacity:1"
       d="m 188.18506,189.27938 c 0,0 -20.73622,-32.36869 -43.2123,-46.48025 -19.67795,-12.3548 -86.021967,-53.465583 -88.719457,-41.22885 -1.37498,6.23738 64.098377,32.90769 82.960197,45.06783 21.32392,13.74748 48.97156,42.64127 48.97156,42.64127 z"
       id="path36"
       sodipodi:nodetypes="csssc" />
    <path
       style="fill:url(#linearGradient38);fill-opacity:1;stroke:none;stroke-width:4.70951;stroke-linecap:round;stroke-dasharray:none;stroke-opacity:1"
       d="m 190.21472,163.41515 c 0,0 -32.99758,-3.67901 -54.85822,2.41137 -19.13918,5.33214 -83.30646,23.57048 -76.693963,30.99531 3.370562,3.78463 57.479113,-20.89412 76.035163,-25.85243 20.97828,-5.60551 55.51702,-7.55425 55.51702,-7.55425 z"
       id="path37"
       sodipodi:nodetypes="csssc" />
    <path
       style="fill:url(#linearGradient39);fill-opacity:1;stroke:none;stroke-width:4.90802;stroke-linecap:round;stroke-dasharray:none;stroke-opacity:1"
       d="m 174.82389,166.56786 c 0,0 -1.54379,-31.00427 -12.34408,-49.94502 -9.45569,-16.58278 -41.57192,-72.111564 -48.93029,-64.644283 -3.75075,3.806269 33.99338,48.886403 42.91863,65.003593 10.09028,18.22106 18.35574,49.58571 18.35574,49.58571 z"
       id="path38"
       sodipodi:nodetypes="csssc" />
  </g>
  <g
     inkscape:label="waveform"
     inkscape:groupmode="layer"
     id="layer1"
     style="display:inline">
    <rect
       style="fill:#550000;stroke-width:0.911256"
       id="rect2"
       width="64"
       height="150"
       x="76.467194"
       y="281.66754" />
    <rect
       style="fill:#aa0000;stroke-width:0.663434"
       id="rect3"
       width="64"
       height="50"
       x="76.467194"
       y="332.05969" />
    <rect
       style="fill:#ff0000;stroke-width:0.734817"
       id="rect4"
       width="64"
       height="50"
       x="76.467194"
       y="282.05969" />
    <rect
       style="fill:#550000;stroke-width:1.28871"
       id="rect5"
       width="64"
       height="300"
       x="150.2336"
       y="132.03752" />
    <rect
       style="fill:#aa0000;stroke-width:0.938237"
       id="rect6"
       width="64"
       height="100"
       x="150.2336"
       y="232.03752" />
    <rect
       style="fill:#ff0000;stroke-width:1.03919"
       id="rect7"
       width="64"
       height="100"
       x="150.2336"
       y="132.03752" />
    <rect
       style="fill:#550000;stroke-width:1.19046"
       id="rect8"
       width="64"
       height="256"
       x="224"
       y="176.03752" />
    <rect
       style="fill:#aa0000;stroke-width:0.865012"
       id="rect9"
       width="64"
       height="85"
       x="224"
       y="261" />
    <rect
       style="fill:#ff0000;stroke-width:0.958084"
       id="rect10"
       width="64"
       height="85"
       x="224"
       y="176.03752" />
    <rect
       style="fill:#550000;stroke-width:1.07821"
       id="rect11"
       width="64"
       height="210"
       x="297.76642"
       y="222.03752" />
    <rect
       style="fill:#aa0000;stroke-width:0.784986"
       id="rect12"
       width="64"
       height="70"
       x="297.76642"
       y="291" />
    <rect
       style="fill:#ff0000;stroke-width:0.869447"
       id="rect13"
       width="64"
       height="70"
       x="297.76642"
       y="221" />
    <rect
       style="fill:#550000;stroke-width:1.19046"
       id="rect14"
       width="64"
       height="256"
       x="371.53284"
       y="176.03748" />
    <rect
       style="fill:#aa0000;stroke-width:0.865012"
       id="rect15"
       width="64"
       height="85"
       x="371.53284"
       y="261" />
    <rect
       style="fill:#ff0000;stroke-width:0.958084"
       id="rect16"
       width="64"
       height="85"
       x="371.53284"
       y="176.03748" />
  </g>
</svg>
