<svg version="1.1" xmlns="http://www.w3.org/2000/svg" viewBox="0 0 541 206" width="1082" height="412">
  <!-- svg-source:excalidraw -->
  
  <defs>
    <style class="style-fonts">
      @font-face {
        font-family: "Virgil";
        src: url("https://excalidraw.com/Virgil.woff2");
      }
      @font-face {
        font-family: "Cascadia";
        src: url("https://excalidraw.com/Cascadia.woff2");
      }
    </style>
    
  </defs>
  <rect x="0" y="0" width="541" height="206" fill="#ffffff"></rect><g stroke-linecap="round" transform="translate(10 10) rotate(0 260.5 93)"><path d="M32 0 M32 0 C186.14 -0.08, 341 -0.01, 489 0 M32 0 C149.88 -0.66, 266.76 -0.71, 489 0 M489 0 C508.6 1.09, 521.28 12.66, 521 32 M489 0 C509.53 -0.28, 521.15 11.87, 521 32 M521 32 C522.76 67.63, 522.79 103.81, 521 154 M521 32 C522.41 64.11, 521.52 94.91, 521 154 M521 154 C522.23 173.57, 512.33 187.67, 489 186 M521 154 C523.26 176.59, 509.29 185.31, 489 186 M489 186 C374.19 186.51, 259.03 187.24, 32 186 M489 186 C395.98 185.93, 304.11 185.84, 32 186 M32 186 C12.04 186.41, 0.49 176.38, 0 154 M32 186 C11.12 186.63, -0.08 173.37, 0 154 M0 154 C-1.08 111.5, -1.24 69.18, 0 32 M0 154 C0.39 118.32, -1.09 81.23, 0 32 M0 32 C-0.92 10.81, 10.27 -0.42, 32 0 M0 32 C-1.01 9.81, 11.99 -0.85, 32 0" stroke="#1e1e1e" stroke-width="1" fill="none"></path></g><g stroke-linecap="round" transform="translate(24 24) rotate(0 9 9.5)"><path d="M11.82 0.19 C13.38 0.88, 15.47 3.41, 16.49 5.17 C17.5 6.92, 18.37 8.81, 17.94 10.71 C17.51 12.62, 15.26 15.17, 13.88 16.59 C12.51 18.02, 11.57 19.33, 9.68 19.26 C7.8 19.2, 4.31 17.49, 2.59 16.21 C0.86 14.93, -0.53 13.47, -0.66 11.59 C-0.79 9.7, 0.84 6.68, 1.8 4.89 C2.76 3.09, 3.08 1.38, 5.09 0.82 C7.1 0.26, 12.4 1.42, 13.85 1.55 C15.3 1.68, 13.86 1.38, 13.8 1.58 M6.19 0.09 C7.83 -0.81, 10.07 -1.11, 11.87 -0.29 C13.67 0.53, 16.04 3.12, 17.01 5.03 C17.99 6.95, 17.86 9.51, 17.72 11.2 C17.58 12.88, 17.35 13.96, 16.18 15.17 C15 16.37, 12.93 18.03, 10.67 18.43 C8.42 18.83, 4.4 18.62, 2.65 17.57 C0.9 16.52, 0.56 14.14, 0.18 12.15 C-0.21 10.16, -0.49 7.74, 0.34 5.61 C1.17 3.47, 4.32 -0.08, 5.18 -0.64 C6.03 -1.2, 5.32 1.89, 5.48 2.26" stroke="#1e1e1e" stroke-width="1" fill="none"></path></g><g stroke-linecap="round" transform="translate(49 23) rotate(0 9 9.5)"><path d="M7.64 -0.33 C9.4 -0.62, 12.23 0.6, 13.84 1.77 C15.46 2.93, 16.61 4.96, 17.33 6.65 C18.04 8.35, 18.64 10.15, 18.13 11.93 C17.62 13.72, 16.16 16.17, 14.26 17.37 C12.37 18.58, 8.81 19.41, 6.78 19.16 C4.74 18.92, 3.25 17.48, 2.05 15.91 C0.85 14.34, -0.4 11.98, -0.42 9.74 C-0.44 7.49, 0.46 3.91, 1.93 2.43 C3.4 0.96, 7.12 1.28, 8.39 0.9 C9.67 0.53, 9.46 0.24, 9.58 0.18 M9.85 -0.99 C11.65 -0.43, 15.6 1.89, 17.16 3.88 C18.71 5.87, 19.22 8.81, 19.16 10.93 C19.1 13.04, 18.27 15.05, 16.78 16.56 C15.29 18.07, 12.55 19.88, 10.23 20.01 C7.91 20.13, 4.35 18.52, 2.86 17.31 C1.36 16.09, 1.68 14.76, 1.25 12.71 C0.81 10.67, -0.28 7.12, 0.24 5.06 C0.76 3, 2.54 1.19, 4.38 0.35 C6.22 -0.49, 10.08 -0.14, 11.27 0.03 C12.47 0.2, 11.67 1.31, 11.52 1.37" stroke="#1e1e1e" stroke-width="1" fill="none"></path></g><g stroke-linecap="round" transform="translate(75 22) rotate(0 9 9.5)"><path d="M10.3 0.11 C12.2 0.38, 15.62 2.54, 16.86 4.13 C18.09 5.71, 17.99 7.7, 17.71 9.62 C17.44 11.54, 16.45 14.1, 15.19 15.63 C13.93 17.17, 11.97 18.45, 10.17 18.85 C8.37 19.24, 6.07 19.2, 4.4 17.99 C2.74 16.77, 0.93 13.79, 0.18 11.56 C-0.58 9.34, -1.11 6.44, -0.11 4.64 C0.88 2.85, 3.94 1.43, 6.13 0.81 C8.31 0.18, 11.46 0.51, 13 0.89 C14.54 1.27, 15.2 2.83, 15.39 3.09 M9.75 0.26 C11.64 0.33, 15.64 2.08, 17.21 3.56 C18.78 5.04, 19.37 7.11, 19.17 9.13 C18.97 11.14, 17.51 13.79, 16.02 15.64 C14.53 17.49, 12.14 19.83, 10.22 20.23 C8.3 20.62, 6.32 19.2, 4.49 18.03 C2.66 16.85, -0.33 15.38, -0.75 13.16 C-1.17 10.93, 1.16 6.58, 1.98 4.67 C2.81 2.76, 2.83 2.58, 4.19 1.69 C5.54 0.8, 9.1 -0.31, 10.12 -0.68 C11.14 -1.05, 9.96 -1.06, 10.33 -0.55" stroke="#1e1e1e" stroke-width="1" fill="none"></path></g><g transform="translate(190 20) rotate(0 74.81666564941406 12.5)"><text x="0" y="0" font-family="Virgil, Segoe UI Emoji" font-size="20px" fill="#1e1e1e" text-anchor="start" style="white-space: pre;" direction="ltr" dominant-baseline="text-before-edge">Millenium Player</text></g><g stroke-linecap="round" transform="translate(25 110) rotate(0 246 7.5)"><path d="M3.75 0 M3.75 0 C154.17 -1.06, 302.94 -1.71, 488.25 0 M3.75 0 C186.71 -1.15, 368.9 -1.12, 488.25 0 M488.25 0 C491.62 0.18, 490.24 -0.08, 492 3.75 M488.25 0 C490.81 0.38, 493.49 2.75, 492 3.75 M492 3.75 C492.19 6.72, 492.3 8.6, 492 11.25 M492 3.75 C491.76 6.57, 492.05 8.74, 492 11.25 M492 11.25 C490.88 13.36, 492.45 15.68, 488.25 15 M492 11.25 C489.96 14.75, 489.4 13.05, 488.25 15 M488.25 15 C335.14 14.74, 182.84 14.67, 3.75 15 M488.25 15 C322.58 16.6, 156.02 17.04, 3.75 15 M3.75 15 C0.3 13.5, 0.27 11.86, 0 11.25 M3.75 15 C1.92 14.74, 1.73 13.59, 0 11.25 M0 11.25 C-0.4 9.32, -0.05 8.77, 0 3.75 M0 11.25 C-0.16 9.18, -0.39 6.79, 0 3.75 M0 3.75 C1.86 -0.59, -0.6 -1.08, 3.75 0 M0 3.75 C0.33 -0.56, 2.07 -0.56, 3.75 0" stroke="#1e1e1e" stroke-width="1" fill="none"></path></g><g stroke-linecap="round" transform="translate(88 102) rotate(0 22.5 14.5)"><path d="M6.64 0.02 L35.96 -1.73 L45.05 -0.02 L43.15 6.17 L45.29 20.18 L43.9 26.7 L38.53 29.18 L7.81 28.86 L2.37 28.84 L-0.52 20.37 L0.44 4.04 L2.49 1.8 L5.8 -0.91" stroke="none" stroke-width="0" fill="#ffffff"></path><path d="M7.25 0 M7.25 0 C20.42 -0.24, 29.07 -1.19, 37.75 0 M7.25 0 C12.92 0.2, 20.8 -0.23, 37.75 0 M37.75 0 C41.76 0.15, 45.04 4.37, 45 7.25 M37.75 0 C41.45 -0.23, 46.49 0.13, 45 7.25 M45 7.25 C46.04 12.72, 43.99 16.38, 45 21.75 M45 7.25 C44.9 11.71, 45.12 17.19, 45 21.75 M45 21.75 C45.57 25.78, 43.64 29.09, 37.75 29 M45 21.75 C47.28 24.33, 44.52 30.82, 37.75 29 M37.75 29 C31.35 27.58, 24.03 29.9, 7.25 29 M37.75 29 C27.17 29.21, 16.76 29.83, 7.25 29 M7.25 29 C2.02 29.62, 0.69 26.49, 0 21.75 M7.25 29 C2.32 30.16, 0.6 27.65, 0 21.75 M0 21.75 C0.89 18.1, -0.93 12.98, 0 7.25 M0 21.75 C0.58 16.41, -0.59 10.41, 0 7.25 M0 7.25 C-0.22 2.25, 4.31 -0.26, 7.25 0 M0 7.25 C0.57 3.22, 1.79 0.52, 7.25 0" stroke="#1e1e1e" stroke-width="1" fill="none"></path></g><g transform="translate(166 60) rotate(0 94.16666412353516 12.5)"><text x="0" y="0" font-family="Virgil, Segoe UI Emoji" font-size="20px" fill="#1e1e1e" text-anchor="start" style="white-space: pre;" direction="ltr" dominant-baseline="text-before-edge">Artist - Song Title</text></g><g transform="translate(396 63) rotate(0 54.91666793823242 12.5)"><text x="0" y="0" font-family="Virgil, Segoe UI Emoji" font-size="20px" fill="#1e1e1e" text-anchor="start" style="white-space: pre;" direction="ltr" dominant-baseline="text-before-edge">0:30 / 4:17</text></g><g stroke-linecap="round" transform="translate(55 62) rotate(0 3.5 12.5)"><path d="M2.73 1.43 L6.27 1.52 L8.57 1.49 L7.12 24.38 L5.14 24.94 L-1 24.11 L1.25 25.02 L-1.24 2.38 L3.56 0.09" stroke="none" stroke-width="0" fill="#ffffff"></path><path d="M1.75 0 M1.75 0 C2.84 0.3, 3.55 -0.07, 5.25 0 M1.75 0 C2.98 0.09, 4.33 -0.12, 5.25 0 M5.25 0 C6.67 0.76, 5.19 -0.27, 7 1.75 M5.25 0 C6.52 2.01, 7.48 2.23, 7 1.75 M7 1.75 C7.16 10.74, 5.45 16.71, 7 23.25 M7 1.75 C6.65 9.18, 6.47 15.25, 7 23.25 M7 23.25 C6.23 25.88, 8.18 26.08, 5.25 25 M7 23.25 C6.6 25.7, 5.66 23.96, 5.25 25 M5.25 25 C4.32 24.65, 3.39 25.09, 1.75 25 M5.25 25 C4.38 25.09, 3.72 24.98, 1.75 25 M1.75 25 C-0.48 23.87, 1.83 26.38, 0 23.25 M1.75 25 C1.12 24.53, 1.73 26.32, 0 23.25 M0 23.25 C-0.26 18.33, 1.76 11.42, 0 1.75 M0 23.25 C0.36 17.38, 0.3 11.42, 0 1.75 M0 1.75 C0.6 0.81, 0.87 0.05, 1.75 0 M0 1.75 C-0.19 0.15, -1.26 1.16, 1.75 0" stroke="#1e1e1e" stroke-width="1" fill="none"></path></g><g stroke-linecap="round" transform="translate(114 62) rotate(0 3.5 12.5)"><path d="M2.2 -1.37 L7.39 -0.31 L6.4 1.92 L6.02 23.12 L6.68 24.77 L2.02 22.57 L1.84 22.41 L-1.75 1.73 L0.55 -0.82" stroke="none" stroke-width="0" fill="#ffffff"></path><path d="M1.75 0 M1.75 0 C3.06 -0.16, 4.46 0.23, 5.25 0 M1.75 0 C3 -0.1, 4.05 0.14, 5.25 0 M5.25 0 C6.67 0.25, 6.2 -1.18, 7 1.75 M5.25 0 C7.8 1.99, 9.26 -1.32, 7 1.75 M7 1.75 C8.69 7.63, 8.52 15.41, 7 23.25 M7 1.75 C7.31 7.85, 6.02 15.03, 7 23.25 M7 23.25 C5.35 25.63, 7 26.85, 5.25 25 M7 23.25 C5.88 22.64, 7.95 24.19, 5.25 25 M5.25 25 C4.29 25.2, 3.75 24.85, 1.75 25 M5.25 25 C4.42 25.06, 3.17 24.94, 1.75 25 M1.75 25 C-0.35 23.34, -0.39 25.07, 0 23.25 M1.75 25 C-1.16 24.16, -0.46 23.12, 0 23.25 M0 23.25 C0.43 16.96, -1.89 10.77, 0 1.75 M0 23.25 C0.94 17.52, -0.15 10.98, 0 1.75 M0 1.75 C-0.6 -0.26, 2.51 1.12, 1.75 0 M0 1.75 C0.77 -0.72, 0.58 1.41, 1.75 0" stroke="#1e1e1e" stroke-width="1" fill="none"></path></g><g stroke-linecap="round" transform="translate(70 57) rotate(0 3 15)"><path d="M0.93 -1.68 L5.42 3.48 L5.06 29.73 L3.73 31.47 L1.76 29.58 L-0.34 2.61 L0.84 -0.91" stroke="none" stroke-width="0" fill="#ffffff"></path><path d="M1.5 0 M1.5 0 C2.18 -0.25, 2.86 0.12, 4.5 0 M1.5 0 C2.01 0.12, 2.7 0.03, 4.5 0 M4.5 0 C4.43 -1.13, 7.83 2.47, 6 1.5 M4.5 0 C6.03 -0.47, 7.73 2.4, 6 1.5 M6 1.5 C5.62 11.2, 7.64 18.92, 6 28.5 M6 1.5 C6.33 9.57, 6.27 17.55, 6 28.5 M6 28.5 C6.6 29.73, 5.78 30.05, 4.5 30 M6 28.5 C5.81 29.07, 3.66 31.16, 4.5 30 M4.5 30 C3.36 29.82, 2.85 30.31, 1.5 30 M4.5 30 C3.8 29.93, 2.91 30.12, 1.5 30 M1.5 30 C0.53 28.14, -0.15 30.12, 0 28.5 M1.5 30 C-1.62 30.53, -1.36 29.08, 0 28.5 M0 28.5 C1.25 20.87, -1.67 14.3, 0 1.5 M0 28.5 C-0.72 20.85, 0.69 13.96, 0 1.5 M0 1.5 C0.32 2.25, 1.29 -0.71, 1.5 0 M0 1.5 C-0.45 2.16, 2.35 2.1, 1.5 0" stroke="#1e1e1e" stroke-width="1" fill="none"></path></g><g stroke-linecap="round" transform="translate(99 57) rotate(0 3 15)"><path d="M1.54 1.69 L7.26 2.42 L7.22 28.92 L5.43 31.67 L-0.18 28.36 L1.56 -0.41 L1.21 1.63" stroke="none" stroke-width="0" fill="#ffffff"></path><path d="M1.5 0 M1.5 0 C2.07 -0.22, 3.32 -0.24, 4.5 0 M1.5 0 C2.59 0.01, 3.67 0.03, 4.5 0 M4.5 0 C4.13 0.83, 5.26 -0.1, 6 1.5 M4.5 0 C5.7 -1.13, 5.85 2.15, 6 1.5 M6 1.5 C8.06 8.45, 4.47 17.06, 6 28.5 M6 1.5 C5.48 8.66, 5.81 14.07, 6 28.5 M6 28.5 C6.19 30.94, 5.72 31.38, 4.5 30 M6 28.5 C4.44 31.63, 3.86 31.53, 4.5 30 M4.5 30 C3.28 29.74, 2.47 30.26, 1.5 30 M4.5 30 C3.2 29.96, 2.25 29.95, 1.5 30 M1.5 30 C2.16 30.5, 0.01 29.43, 0 28.5 M1.5 30 C1.31 30.72, -0.82 27.26, 0 28.5 M0 28.5 C0.81 21.26, -0.75 8.78, 0 1.5 M0 28.5 C-0.5 19.08, -0.19 9.22, 0 1.5 M0 1.5 C1.21 -0.46, 0.21 -0.49, 1.5 0 M0 1.5 C-0.37 2.77, 1.39 -1.01, 1.5 0" stroke="#1e1e1e" stroke-width="1" fill="none"></path></g><g stroke-linecap="round" transform="translate(85 69) rotate(0 2.5 9)"><path d="M1.85 0.23 L5.28 1.3 L4.84 16.37 L2.15 19.01 L0.28 15.71 L1.22 -0.07 L-0.1 1.55" stroke="none" stroke-width="0" fill="#ffffff"></path><path d="M1.25 0 M1.25 0 C2.47 0.09, 3.07 -0.17, 3.75 0 M1.25 0 C2.15 0.06, 2.95 0.05, 3.75 0 M3.75 0 C3.4 -0.36, 4.61 0.45, 5 1.25 M3.75 0 C2.89 1.44, 4.94 -1.5, 5 1.25 M5 1.25 C4.94 5.85, 4.63 13.43, 5 16.75 M5 1.25 C5.33 6.14, 4.87 12.14, 5 16.75 M5 16.75 C6.61 19.41, 2.89 19.21, 3.75 18 M5 16.75 C2.89 19.16, 5.5 16.53, 3.75 18 M3.75 18 C2.94 18.05, 2.38 18.1, 1.25 18 M3.75 18 C2.95 18.08, 1.99 18.08, 1.25 18 M1.25 18 C0.83 18.93, 1.67 17.41, 0 16.75 M1.25 18 C0.26 19.79, -2.2 17.25, 0 16.75 M0 16.75 C-0.07 9.45, -1.11 5.67, 0 1.25 M0 16.75 C-0.01 13.55, -0.02 10.32, 0 1.25 M0 1.25 C0.45 -0.95, 1.24 -0.74, 1.25 0 M0 1.25 C-0.69 0.62, -0.71 -0.15, 1.25 0" stroke="#1e1e1e" stroke-width="1" fill="none"></path></g><g stroke-linecap="round" transform="translate(128 69) rotate(0 2.5 9)"><path d="M2.98 1.96 L3.34 1.37 L3.62 16.24 L5.58 17.31 L1.66 17.25 L0.01 1.18 L1.95 0.63" stroke="none" stroke-width="0" fill="#ffffff"></path><path d="M1.25 0 M1.25 0 C1.7 0.14, 2.65 0.22, 3.75 0 M1.25 0 C1.83 -0.09, 2.43 0.04, 3.75 0 M3.75 0 C4 1.06, 6.21 -0.54, 5 1.25 M3.75 0 C4.25 -0.56, 4.63 2.69, 5 1.25 M5 1.25 C4.21 5.22, 4.63 12.26, 5 16.75 M5 1.25 C4.51 4.45, 5.54 8.43, 5 16.75 M5 16.75 C5.6 16.99, 2.86 16.9, 3.75 18 M5 16.75 C4.43 17.14, 6.52 20.07, 3.75 18 M3.75 18 C2.88 17.88, 2.39 18.13, 1.25 18 M3.75 18 C2.99 18.09, 2.19 17.88, 1.25 18 M1.25 18 C0.61 18.58, 0.9 17.05, 0 16.75 M1.25 18 C2.59 17.49, 1.09 15.37, 0 16.75 M0 16.75 C-0.78 11.49, -1.46 6.07, 0 1.25 M0 16.75 C0.36 11.24, -0.68 4.52, 0 1.25 M0 1.25 C-0.9 -0.72, 1.36 -1.57, 1.25 0 M0 1.25 C-1.24 -0.51, -0.76 -0.48, 1.25 0" stroke="#1e1e1e" stroke-width="1" fill="none"></path></g><g stroke-linecap="round" transform="translate(40 69) rotate(0 2.5 9)"><path d="M0.64 -0.93 L3.34 0.86 L5.65 15.24 L3.02 17.6 L-1.13 16.04 L1.55 1.83 L1.85 -0.6" stroke="none" stroke-width="0" fill="#ffffff"></path><path d="M1.25 0 M1.25 0 C1.74 0.22, 2.54 0.05, 3.75 0 M1.25 0 C1.9 0.13, 2.72 0.05, 3.75 0 M3.75 0 C3.45 0, 6.22 1.9, 5 1.25 M3.75 0 C6.52 -2.16, 5.23 1.08, 5 1.25 M5 1.25 C4.62 7.33, 3.47 12.95, 5 16.75 M5 1.25 C5.3 4.28, 5.41 9.52, 5 16.75 M5 16.75 C5.75 16.65, 5.66 19.17, 3.75 18 M5 16.75 C3.17 16.68, 3.55 16.69, 3.75 18 M3.75 18 C2.78 17.86, 1.96 17.95, 1.25 18 M3.75 18 C2.8 18, 1.86 18.1, 1.25 18 M1.25 18 C0.92 17.41, -1.05 15.94, 0 16.75 M1.25 18 C-1.35 18.05, -0.55 19.13, 0 16.75 M0 16.75 C-0.28 10.97, -1.09 5.58, 0 1.25 M0 16.75 C-0.7 11.62, -0.45 5.31, 0 1.25 M0 1.25 C1.02 -1.17, 0.9 -1.89, 1.25 0 M0 1.25 C-0.66 0.51, 0.7 0.77, 1.25 0" stroke="#1e1e1e" stroke-width="1" fill="none"></path></g><g stroke-linecap="round" transform="translate(26 53) rotate(0 61.5 20)"><path d="M10 0 M10 0 C37.18 -1.14, 63.62 0.26, 113 0 M10 0 C46.21 0.39, 81.24 -0.63, 113 0 M113 0 C117.84 0.75, 122.27 4.2, 123 10 M113 0 C117.49 -0.49, 121.6 2.45, 123 10 M123 10 C123.66 14.45, 124.98 20.74, 123 30 M123 10 C122.54 14.93, 122.83 20.43, 123 30 M123 30 C123.57 36.53, 118.04 38.66, 113 40 M123 30 C124.74 34.84, 118.88 41.03, 113 40 M113 40 C78.38 38.58, 47.12 38.53, 10 40 M113 40 C84.83 40.13, 57.43 40.38, 10 40 M10 40 C2.01 40.38, 0.01 35.83, 0 30 M10 40 C4.52 41.64, 0.62 36.74, 0 30 M0 30 C0.16 20.57, -0.95 15.77, 0 10 M0 30 C0.13 23.68, 0.95 17.85, 0 10 M0 10 C-0.25 2.24, 2.7 -1.28, 10 0 M0 10 C-1.71 5.52, 5.3 0.29, 10 0" stroke="#1e1e1e" stroke-width="1" fill="none"></path></g><g stroke-linecap="round" transform="translate(241 139) rotate(0 23 20.5)"><path d="M10.25 0 M10.25 0 C17.35 0.06, 21.3 -0.01, 35.75 0 M10.25 0 C17.04 -0.72, 24.09 -0.71, 35.75 0 M35.75 0 C42.56 -0.9, 44.66 4.52, 46 10.25 M35.75 0 C41.93 2.25, 47.51 2.71, 46 10.25 M46 10.25 C46.18 17.11, 44.77 26.17, 46 30.75 M46 10.25 C45.07 16.99, 46.07 24.43, 46 30.75 M46 30.75 C46.61 39.53, 41.27 41.53, 35.75 41 M46 30.75 C45.74 37.73, 43.22 38.89, 35.75 41 M35.75 41 C29.88 41.02, 22.35 41.36, 10.25 41 M35.75 41 C25.31 40.97, 16.44 41.76, 10.25 41 M10.25 41 C1.7 40.85, 0.92 36.96, 0 30.75 M10.25 41 C3.86 41.35, -1.43 37.63, 0 30.75 M0 30.75 C-1.59 27.18, -0.74 20.3, 0 10.25 M0 30.75 C-0.92 25.23, 0.26 19.25, 0 10.25 M0 10.25 C1.24 4.67, 4.98 0.49, 10.25 0 M0 10.25 C-1.52 1.7, 3.18 1.09, 10.25 0" stroke="#1e1e1e" stroke-width="1" fill="none"></path></g><g stroke-linecap="round" transform="translate(297 139) rotate(0 23 20.5)"><path d="M10.25 0 M10.25 0 C16.2 -0.86, 20.1 0.13, 35.75 0 M10.25 0 C20.04 -0.66, 28.8 0.21, 35.75 0 M35.75 0 C44.48 -0.95, 44.28 1.61, 46 10.25 M35.75 0 C41.01 0.85, 44.82 5.33, 46 10.25 M46 10.25 C43.97 17.69, 47.82 24.46, 46 30.75 M46 10.25 C46.78 17.77, 46.35 25.82, 46 30.75 M46 30.75 C44.93 39.26, 43.27 42.91, 35.75 41 M46 30.75 C44.85 38.47, 40.36 39.23, 35.75 41 M35.75 41 C28.14 39.54, 22.92 39.57, 10.25 41 M35.75 41 C26.65 40.31, 18.48 41.49, 10.25 41 M10.25 41 C4.64 40.64, -0.59 37.25, 0 30.75 M10.25 41 C2.44 41.35, 0.59 36.66, 0 30.75 M0 30.75 C1.8 25.97, -1.45 18.15, 0 10.25 M0 30.75 C0.48 24.09, -0.05 17.59, 0 10.25 M0 10.25 C-1.68 2.25, 1.88 1.28, 10.25 0 M0 10.25 C-1.41 3.18, 2.26 2.03, 10.25 0" stroke="#1e1e1e" stroke-width="1" fill="none"></path></g><g stroke-linecap="round" transform="translate(185 139) rotate(0 23 20.5)"><path d="M10.25 0 M10.25 0 C20.77 -1.71, 30.27 2.14, 35.75 0 M10.25 0 C17.81 0.57, 26.29 0.13, 35.75 0 M35.75 0 C43.65 -1.07, 47.68 4.1, 46 10.25 M35.75 0 C44.78 -1.15, 46.89 1.19, 46 10.25 M46 10.25 C46.27 13.28, 44.37 18.69, 46 30.75 M46 10.25 C47.03 14.1, 45.12 18.87, 46 30.75 M46 30.75 C46.48 38.81, 42.22 40.41, 35.75 41 M46 30.75 C45.62 36.6, 42.93 41.59, 35.75 41 M35.75 41 C31.07 42.39, 23.4 39.14, 10.25 41 M35.75 41 C29.99 41.67, 23.45 41.14, 10.25 41 M10.25 41 C3.15 39.32, -1.17 36.04, 0 30.75 M10.25 41 C4.89 39.59, -0.24 36.42, 0 30.75 M0 30.75 C-0.03 23.34, -1.03 16.63, 0 10.25 M0 30.75 C0.67 25.68, 0.43 21.96, 0 10.25 M0 10.25 C-0.39 2.97, 2.86 -0.61, 10.25 0 M0 10.25 C1.27 4.46, 1.73 -0.89, 10.25 0" stroke="#1e1e1e" stroke-width="1" fill="none"></path></g><g stroke-linecap="round"><g transform="translate(254 153) rotate(0 -1.4332586839794885 8.77006562501191)"><path d="M-0.04 -0.68 C-0.42 2.22, -2.52 15.3, -2.83 18.22 M-1.51 1.58 C-1.47 4.03, -0.37 13.56, -0.55 16.21" stroke="#1e1e1e" stroke-width="1" fill="none"></path></g></g><mask></mask><g stroke-linecap="round"><g transform="translate(257 153) rotate(0 8.457195322215568 4.165893620355064)"><path d="M-1.16 0.44 C1.72 1.71, 14.83 6.17, 18.07 7.11 M0.44 -0.38 C3.09 1.16, 14.29 7.49, 17.16 8.71" stroke="#1e1e1e" stroke-width="1" fill="none"></path></g></g><mask></mask><g stroke-linecap="round"><g transform="translate(252 165) rotate(0 12.598026332976303 -2.0129144462058264)"><path d="M0.05 -1.13 C4.18 -2.09, 20.15 -4.4, 24.26 -4.91 M-1.38 0.89 C3.17 0.06, 22.39 -2.16, 26.58 -3.33" stroke="#1e1e1e" stroke-width="1" fill="none"></path></g></g><mask></mask><g stroke-linecap="round" transform="translate(404 143) rotate(0 55 9)"><path d="M4.5 0 M4.5 0 C25.85 1.35, 49.06 1.35, 105.5 0 M4.5 0 C28.96 -0.53, 53.82 0, 105.5 0 M105.5 0 C107.5 0.48, 111.44 1.49, 110 4.5 M105.5 0 C108.66 -1.26, 108.17 0.55, 110 4.5 M110 4.5 C110.86 7.53, 110.43 9.84, 110 13.5 M110 4.5 C109.76 6.52, 109.65 9.54, 110 13.5 M110 13.5 C111.13 17.07, 109.88 17.81, 105.5 18 M110 13.5 C108.77 14.21, 108.18 17.83, 105.5 18 M105.5 18 C64.7 17.19, 24.21 20.56, 4.5 18 M105.5 18 C65.25 17.94, 27.13 17.82, 4.5 18 M4.5 18 C2.73 16.64, 0.51 14.93, 0 13.5 M4.5 18 C3.79 17.98, -2.27 15.29, 0 13.5 M0 13.5 C0.63 10.19, 0.24 7.69, 0 4.5 M0 13.5 C0.39 10.35, -0.19 7.14, 0 4.5 M0 4.5 C0.88 0.79, 2.86 1.87, 4.5 0 M0 4.5 C-2.21 0.35, 3.27 1.79, 4.5 0" stroke="#1e1e1e" stroke-width="1" fill="none"></path></g><g stroke-linecap="round" transform="translate(460 138) rotate(0 22.5 14.5)"><path d="M9.14 1.93 L39.28 -0.97 L41.6 0.18 L46.79 9.08 L45.06 22 L41.8 26.81 L39.24 28.38 L8.48 27.64 L2.32 25.62 L1.99 21.73 L-1.52 3.03 L4.47 0.1 L5.34 1.35" stroke="none" stroke-width="0" fill="#ffffff"></path><path d="M7.25 0 M7.25 0 C15.88 -0.33, 22.88 1.68, 37.75 0 M7.25 0 C16.71 -0.29, 25.97 1, 37.75 0 M37.75 0 C40.66 -1, 46.54 3.97, 45 7.25 M37.75 0 C43.65 2.12, 47.15 2.25, 45 7.25 M45 7.25 C45.75 13.1, 44.03 15.93, 45 21.75 M45 7.25 C45.28 12.02, 44.75 15.83, 45 21.75 M45 21.75 C43.76 27.12, 41.62 27.32, 37.75 29 M45 21.75 C43.53 25.52, 42.39 28.72, 37.75 29 M37.75 29 C26.19 29.18, 14.52 27.51, 7.25 29 M37.75 29 C32 29.97, 24.71 29.85, 7.25 29 M7.25 29 C4.09 27.13, -0.87 24.77, 0 21.75 M7.25 29 C0.8 27.21, -2.02 27.83, 0 21.75 M0 21.75 C1.23 17.46, -1.32 11.23, 0 7.25 M0 21.75 C-0.5 18.9, -0.16 15.67, 0 7.25 M0 7.25 C1.79 0.54, 3.91 1.16, 7.25 0 M0 7.25 C-2.09 2.84, 4.66 -0.68, 7.25 0" stroke="#1e1e1e" stroke-width="1" fill="none"></path></g><g stroke-linecap="round"><g transform="translate(412 184) rotate(0 49.0440314151067 -0.3724406793713513)"><path d="M1 0.62 C17.01 0.39, 80.03 -0.92, 95.89 -1.37 M0.07 -0.1 C16.45 -0.16, 81.6 0.17, 98.02 -0.02" stroke="#1e1e1e" stroke-width="1" fill="none"></path></g></g><mask></mask><g stroke-linecap="round"><g transform="translate(416 183) rotate(0 47.191051725135196 -4.782175999493347)"><path d="M0.4 -0.82 C16.11 -2.49, 79.57 -9.16, 95.24 -10.93 M-0.86 1.37 C14.64 -0.01, 78.71 -7.4, 94.42 -9.36" stroke="#1e1e1e" stroke-width="1" fill="none"></path></g></g><mask></mask><g stroke-linecap="round"><g transform="translate(509 182) rotate(0 0.6510343324691803 -4.405252084308302)"><path d="M1.06 -0.78 C1.29 -2.6, 1.02 -8.66, 0.75 -10.23 M0.15 1.42 C0.36 -0.27, 0.49 -7.08, 0.19 -8.82" stroke="#1e1e1e" stroke-width="1" fill="none"></path></g></g><mask></mask></svg>